<?xml version="1.0" encoding="us-ascii" standalone="no"?><svg xmlns="http://www.w3.org/2000/svg" xmlns:xlink="http://www.w3.org/1999/xlink" contentStyleType="text/css" height="386px" preserveAspectRatio="none" style="width:743px;height:386px;background:#FFFFFF;" version="1.1" viewBox="0 0 743 386" width="743px" zoomAndPan="magnify"><defs/><g><rect fill="#FFFFFF" height="183.7969" style="stroke:#181818;stroke-width:1.0;" width="10" x="38" y="112.4297"/><rect fill="#FFFFFF" height="154.6641" style="stroke:#181818;stroke-width:1.0;" width="10" x="103" y="141.5625"/><rect fill="#FFFFFF" height="125.5313" style="stroke:#181818;stroke-width:1.0;" width="10" x="367" y="170.6953"/><rect fill="#FFFFFF" height="9" style="stroke:#181818;stroke-width:1.0;" width="10" x="372" y="287.2266"/><rect fill="#FFFFFF" height="96.3984" style="stroke:#181818;stroke-width:1.0;" width="10" x="503" y="199.8281"/><rect fill="#FFFFFF" height="67.2656" style="stroke:#181818;stroke-width:1.0;" width="10" x="508" y="228.9609"/><rect fill="#FFFFFF" height="38.1328" style="stroke:#181818;stroke-width:1.0;" width="10" x="513" y="258.0938"/><line style="stroke:#181818;stroke-width:0.5;stroke-dasharray:5.0,5.0;" x1="43" x2="43" y1="81.2969" y2="305.2266"/><line style="stroke:#181818;stroke-width:0.5;stroke-dasharray:5.0,5.0;" x1="108" x2="108" y1="81.2969" y2="305.2266"/><line style="stroke:#181818;stroke-width:0.5;stroke-dasharray:5.0,5.0;" x1="200.5" x2="200.5" y1="81.2969" y2="305.2266"/><line style="stroke:#181818;stroke-width:0.5;stroke-dasharray:5.0,5.0;" x1="372" x2="372" y1="81.2969" y2="305.2266"/><line style="stroke:#181818;stroke-width:0.5;stroke-dasharray:5.0,5.0;" x1="507.5" x2="507.5" y1="81.2969" y2="305.2266"/><line style="stroke:#181818;stroke-width:0.5;stroke-dasharray:5.0,5.0;" x1="696" x2="696" y1="81.2969" y2="305.2266"/><text fill="#000000" font-family="sans-serif" font-size="14" lengthAdjust="spacing" textLength="70" x="5" y="77.9951">&#38598;&#32676;&#31649;&#29702;&#21592;</text><ellipse cx="43" cy="13.5" fill="#E2E2F0" rx="8" ry="8" style="stroke:#181818;stroke-width:0.5;"/><path d="M43,21.5 L43,48.5 M30,29.5 L56,29.5 M43,48.5 L30,63.5 M43,48.5 L56,63.5 " fill="none" style="stroke:#181818;stroke-width:0.5;"/><text fill="#000000" font-family="sans-serif" font-size="14" lengthAdjust="spacing" textLength="70" x="5" y="317.2217">&#38598;&#32676;&#31649;&#29702;&#21592;</text><ellipse cx="43" cy="329.0234" fill="#E2E2F0" rx="8" ry="8" style="stroke:#181818;stroke-width:0.5;"/><path d="M43,337.0234 L43,364.0234 M30,345.0234 L56,345.0234 M43,364.0234 L30,379.0234 M43,364.0234 L56,379.0234 " fill="none" style="stroke:#181818;stroke-width:0.5;"/><text fill="#000000" font-family="sans-serif" font-size="14" lengthAdjust="spacing" textLength="28" x="91" y="77.9951">&#29992;&#25143;</text><ellipse cx="108" cy="13.5" fill="#E2E2F0" rx="8" ry="8" style="stroke:#181818;stroke-width:0.5;"/><path d="M108,21.5 L108,48.5 M95,29.5 L121,29.5 M108,48.5 L95,63.5 M108,48.5 L121,63.5 " fill="none" style="stroke:#181818;stroke-width:0.5;"/><text fill="#000000" font-family="sans-serif" font-size="14" lengthAdjust="spacing" textLength="28" x="91" y="317.2217">&#29992;&#25143;</text><ellipse cx="108" cy="329.0234" fill="#E2E2F0" rx="8" ry="8" style="stroke:#181818;stroke-width:0.5;"/><path d="M108,337.0234 L108,364.0234 M95,345.0234 L121,345.0234 M108,364.0234 L95,379.0234 M108,364.0234 L121,379.0234 " fill="none" style="stroke:#181818;stroke-width:0.5;"/><rect fill="#FFA500" height="30.2969" rx="2.5" ry="2.5" style="stroke:#181818;stroke-width:0.5;" width="83" x="159.5" y="50"/><text fill="#000000" font-family="sans-serif" font-size="14" lengthAdjust="spacing" textLength="69" x="166.5" y="69.9951">API Server</text><rect fill="#FFA500" height="30.2969" rx="2.5" ry="2.5" style="stroke:#181818;stroke-width:0.5;" width="83" x="159.5" y="304.2266"/><text fill="#000000" font-family="sans-serif" font-size="14" lengthAdjust="spacing" textLength="69" x="166.5" y="324.2217">API Server</text><rect fill="#E2E2F0" height="30.2969" rx="2.5" ry="2.5" style="stroke:#181818;stroke-width:0.5;" width="70" x="337" y="50"/><text fill="#000000" font-family="sans-serif" font-size="14" lengthAdjust="spacing" textLength="56" x="344" y="69.9951">&#21367;&#25511;&#21046;&#22120;</text><rect fill="#E2E2F0" height="30.2969" rx="2.5" ry="2.5" style="stroke:#181818;stroke-width:0.5;" width="70" x="337" y="304.2266"/><text fill="#000000" font-family="sans-serif" font-size="14" lengthAdjust="spacing" textLength="56" x="344" y="324.2217">&#21367;&#25511;&#21046;&#22120;</text><rect fill="#E2E2F0" height="30.2969" rx="2.5" ry="2.5" style="stroke:#181818;stroke-width:0.5;" width="149" x="433.5" y="50"/><text fill="#000000" font-family="sans-serif" font-size="14" lengthAdjust="spacing" textLength="135" x="440.5" y="69.9951">External Provisioner</text><rect fill="#E2E2F0" height="30.2969" rx="2.5" ry="2.5" style="stroke:#181818;stroke-width:0.5;" width="149" x="433.5" y="304.2266"/><text fill="#000000" font-family="sans-serif" font-size="14" lengthAdjust="spacing" textLength="135" x="440.5" y="324.2217">External Provisioner</text><rect fill="#E2E2F0" height="30.2969" rx="2.5" ry="2.5" style="stroke:#181818;stroke-width:0.5;" width="82" x="655" y="50"/><text fill="#000000" font-family="sans-serif" font-size="14" lengthAdjust="spacing" textLength="68" x="662" y="69.9951">CSI Plugin</text><rect fill="#E2E2F0" height="30.2969" rx="2.5" ry="2.5" style="stroke:#181818;stroke-width:0.5;" width="82" x="655" y="304.2266"/><text fill="#000000" font-family="sans-serif" font-size="14" lengthAdjust="spacing" textLength="68" x="662" y="324.2217">CSI Plugin</text><rect fill="#FFFFFF" height="183.7969" style="stroke:#181818;stroke-width:1.0;" width="10" x="38" y="112.4297"/><rect fill="#FFFFFF" height="154.6641" style="stroke:#181818;stroke-width:1.0;" width="10" x="103" y="141.5625"/><rect fill="#FFFFFF" height="125.5313" style="stroke:#181818;stroke-width:1.0;" width="10" x="367" y="170.6953"/><rect fill="#FFFFFF" height="9" style="stroke:#181818;stroke-width:1.0;" width="10" x="372" y="287.2266"/><rect fill="#FFFFFF" height="96.3984" style="stroke:#181818;stroke-width:1.0;" width="10" x="503" y="199.8281"/><rect fill="#FFFFFF" height="67.2656" style="stroke:#181818;stroke-width:1.0;" width="10" x="508" y="228.9609"/><rect fill="#FFFFFF" height="38.1328" style="stroke:#181818;stroke-width:1.0;" width="10" x="513" y="258.0938"/><polygon fill="#181818" points="189,108.4297,199,112.4297,189,116.4297,193,112.4297" style="stroke:#181818;stroke-width:1.0;"/><line style="stroke:#181818;stroke-width:1.0;" x1="48" x2="195" y1="112.4297" y2="112.4297"/><text fill="#000000" font-family="sans-serif" font-size="13" font-weight="bold" lengthAdjust="spacing" textLength="9" x="55" y="107.3638">1</text><text fill="#000000" font-family="sans-serif" font-size="13" lengthAdjust="spacing" textLength="115" x="68" y="107.3638">&#21019;&#24314; StorageClass</text><polygon fill="#181818" points="189,137.5625,199,141.5625,189,145.5625,193,141.5625" style="stroke:#181818;stroke-width:1.0;"/><line style="stroke:#181818;stroke-width:1.0;" x1="113" x2="195" y1="141.5625" y2="141.5625"/><text fill="#000000" font-family="sans-serif" font-size="13" font-weight="bold" lengthAdjust="spacing" textLength="9" x="120" y="136.4966">2</text><text fill="#000000" font-family="sans-serif" font-size="13" lengthAdjust="spacing" textLength="56" x="133" y="136.4966">&#21019;&#24314; PVC</text><polygon fill="#181818" points="212,166.6953,202,170.6953,212,174.6953,208,170.6953" style="stroke:#181818;stroke-width:1.0;"/><line style="stroke:#181818;stroke-width:1.0;" x1="206" x2="366" y1="170.6953" y2="170.6953"/><text fill="#000000" font-family="sans-serif" font-size="13" font-weight="bold" lengthAdjust="spacing" textLength="9" x="218" y="165.6294">3</text><text fill="#000000" font-family="sans-serif" font-size="13" lengthAdjust="spacing" textLength="134" x="231" y="165.6294">&#20026; PVC &#26631; Annotation</text><polygon fill="#181818" points="212,195.8281,202,199.8281,212,203.8281,208,199.8281" style="stroke:#181818;stroke-width:1.0;"/><line style="stroke:#181818;stroke-width:1.0;" x1="206" x2="502" y1="199.8281" y2="199.8281"/><text fill="#000000" font-family="sans-serif" font-size="13" font-weight="bold" lengthAdjust="spacing" textLength="9" x="218" y="194.7622">4</text><text fill="#000000" font-family="sans-serif" font-size="13" lengthAdjust="spacing" textLength="270" x="231" y="194.7622">&#21457;&#29616; PVC &#20026;&#21160;&#24577;&#21367;&#65292;&#33719;&#21462; StorageClass &#21442;&#25968;</text><polygon fill="#181818" points="684,224.9609,694,228.9609,684,232.9609,688,228.9609" style="stroke:#181818;stroke-width:1.0;"/><line style="stroke:#181818;stroke-width:1.0;" x1="518" x2="690" y1="228.9609" y2="228.9609"/><text fill="#000000" font-family="sans-serif" font-size="13" font-weight="bold" lengthAdjust="spacing" textLength="9" x="525" y="223.895">5</text><text fill="#000000" font-family="sans-serif" font-size="13" lengthAdjust="spacing" textLength="146" x="538" y="223.895">&#35843;&#29992; CSI &#21019;&#24314;&#23384;&#20648;&#21367;&#35774;&#22791;</text><polygon fill="#181818" points="212,254.0938,202,258.0938,212,262.0938,208,258.0938" style="stroke:#181818;stroke-width:1.0;"/><line style="stroke:#181818;stroke-width:1.0;" x1="206" x2="512" y1="258.0938" y2="258.0938"/><text fill="#000000" font-family="sans-serif" font-size="13" font-weight="bold" lengthAdjust="spacing" textLength="9" x="218" y="253.0278">6</text><text fill="#000000" font-family="sans-serif" font-size="13" lengthAdjust="spacing" textLength="155" x="231" y="253.0278">&#21019;&#24314; PV &#20197;&#20195;&#34920;&#23384;&#20648;&#21367;&#35774;&#22791;</text><polygon fill="#181818" points="212,283.2266,202,287.2266,212,291.2266,208,287.2266" style="stroke:#181818;stroke-width:1.0;"/><line style="stroke:#181818;stroke-width:1.0;" x1="206" x2="371" y1="287.2266" y2="287.2266"/><text fill="#000000" font-family="sans-serif" font-size="13" font-weight="bold" lengthAdjust="spacing" textLength="9" x="218" y="282.1606">7</text><text fill="#000000" font-family="sans-serif" font-size="13" lengthAdjust="spacing" textLength="94" x="231" y="282.1606">&#32465;&#23450; PV &#21644; PVC</text></g></svg>