<?xml version="1.0" encoding="us-ascii" standalone="no"?><svg xmlns="http://www.w3.org/2000/svg" xmlns:xlink="http://www.w3.org/1999/xlink" contentStyleType="text/css" height="964px" preserveAspectRatio="none" style="width:1184px;height:964px;background:#FFFFFF;" version="1.1" viewBox="0 0 1184 964" width="1184px" zoomAndPan="magnify"><defs/><g><rect fill="#FFFFFF" height="727.0547" style="stroke:#181818;stroke-width:1.0;" width="10" x="17" y="147.5625"/><rect fill="#FFFFFF" height="505.125" style="stroke:#181818;stroke-width:1.0;" width="10" x="118.5" y="369.4922"/><rect fill="#FFFFFF" height="475.9922" style="stroke:#181818;stroke-width:1.0;" width="10" x="123.5" y="398.625"/><rect fill="#FFFFFF" height="411.7266" style="stroke:#181818;stroke-width:1.0;" width="10" x="128.5" y="462.8906"/><rect fill="#FFFFFF" height="382.5938" style="stroke:#181818;stroke-width:1.0;" width="10" x="133.5" y="492.0234"/><rect fill="#FFFFFF" height="230.9297" style="stroke:#181818;stroke-width:1.0;" width="10" x="268.5" y="643.6875"/><rect fill="#FFFFFF" height="201.7969" style="stroke:#181818;stroke-width:1.0;" width="10" x="273.5" y="672.8203"/><rect fill="#FFFFFF" height="697.9219" style="stroke:#181818;stroke-width:1.0;" width="10" x="749" y="176.6953"/><rect fill="#FFFFFF" height="668.7891" style="stroke:#181818;stroke-width:1.0;" width="10" x="754" y="205.8281"/><rect fill="#FFFFFF" height="353.4609" style="stroke:#181818;stroke-width:1.0;" width="10" x="759" y="521.1563"/><rect fill="#FFFFFF" height="569.3906" style="stroke:#181818;stroke-width:1.0;" width="10" x="826" y="305.2266"/><rect fill="#FFFFFF" height="289.1953" style="stroke:#181818;stroke-width:1.0;" width="10" x="915" y="585.4219"/><rect fill="#FFFFFF" height="260.0625" style="stroke:#181818;stroke-width:1.0;" width="10" x="920" y="614.5547"/><rect fill="#FFFFFF" height="102.3984" style="stroke:#181818;stroke-width:1.0;" width="10" x="998.5" y="772.2188"/><rect fill="#FFFFFF" height="38.1328" style="stroke:#181818;stroke-width:1.0;" width="10" x="1003.5" y="836.4844"/><line style="stroke:#181818;stroke-width:0.5;stroke-dasharray:5.0,5.0;" x1="22" x2="22" y1="81.2969" y2="883.6172"/><line style="stroke:#181818;stroke-width:0.5;stroke-dasharray:5.0,5.0;" x1="123" x2="123" y1="81.2969" y2="883.6172"/><line style="stroke:#181818;stroke-width:0.5;stroke-dasharray:5.0,5.0;" x1="273" x2="273" y1="81.2969" y2="883.6172"/><line style="stroke:#181818;stroke-width:0.5;stroke-dasharray:5.0,5.0;" x1="494.5" x2="494.5" y1="81.2969" y2="883.6172"/><line style="stroke:#181818;stroke-width:0.5;stroke-dasharray:5.0,5.0;" x1="586.5" x2="586.5" y1="81.2969" y2="883.6172"/><line style="stroke:#181818;stroke-width:0.5;stroke-dasharray:5.0,5.0;" x1="754" x2="754" y1="81.2969" y2="883.6172"/><line style="stroke:#181818;stroke-width:0.5;stroke-dasharray:5.0,5.0;" x1="831" x2="831" y1="81.2969" y2="883.6172"/><line style="stroke:#181818;stroke-width:0.5;stroke-dasharray:5.0,5.0;" x1="920" x2="920" y1="81.2969" y2="883.6172"/><line style="stroke:#181818;stroke-width:0.5;stroke-dasharray:5.0,5.0;" x1="1003" x2="1003" y1="81.2969" y2="883.6172"/><text fill="#000000" font-family="sans-serif" font-size="14" lengthAdjust="spacing" textLength="28" x="5" y="77.9951">&#29992;&#25143;</text><ellipse cx="22" cy="13.5" fill="#E2E2F0" rx="8" ry="8" style="stroke:#181818;stroke-width:0.5;"/><path d="M22,21.5 L22,48.5 M9,29.5 L35,29.5 M22,48.5 L9,63.5 M22,48.5 L35,63.5 " fill="none" style="stroke:#181818;stroke-width:0.5;"/><text fill="#000000" font-family="sans-serif" font-size="14" lengthAdjust="spacing" textLength="28" x="5" y="895.6123">&#29992;&#25143;</text><ellipse cx="22" cy="907.4141" fill="#E2E2F0" rx="8" ry="8" style="stroke:#181818;stroke-width:0.5;"/><path d="M22,915.4141 L22,942.4141 M9,923.4141 L35,923.4141 M22,942.4141 L9,957.4141 M22,942.4141 L35,957.4141 " fill="none" style="stroke:#181818;stroke-width:0.5;"/><rect fill="#E2E2F0" height="30.2969" rx="2.5" ry="2.5" style="stroke:#181818;stroke-width:0.5;" width="149" x="49" y="50"/><text fill="#000000" font-family="sans-serif" font-size="14" lengthAdjust="spacing" textLength="135" x="56" y="69.9951">External Provisioner</text><rect fill="#E2E2F0" height="30.2969" rx="2.5" ry="2.5" style="stroke:#181818;stroke-width:0.5;" width="149" x="49" y="882.6172"/><text fill="#000000" font-family="sans-serif" font-size="14" lengthAdjust="spacing" textLength="135" x="56" y="902.6123">External Provisioner</text><rect fill="#E2E2F0" height="30.2969" rx="2.5" ry="2.5" style="stroke:#181818;stroke-width:0.5;" width="131" x="208" y="50"/><text fill="#000000" font-family="sans-serif" font-size="14" lengthAdjust="spacing" textLength="117" x="215" y="69.9951">External Attacher</text><rect fill="#E2E2F0" height="30.2969" rx="2.5" ry="2.5" style="stroke:#181818;stroke-width:0.5;" width="131" x="208" y="882.6172"/><text fill="#000000" font-family="sans-serif" font-size="14" lengthAdjust="spacing" textLength="117" x="215" y="902.6123">External Attacher</text><rect fill="#FFC0CB" height="30.2969" rx="2.5" ry="2.5" style="stroke:#181818;stroke-width:0.5;" width="82" x="453.5" y="50"/><text fill="#000000" font-family="sans-serif" font-size="14" lengthAdjust="spacing" textLength="68" x="460.5" y="69.9951">CSI Plugin</text><rect fill="#FFC0CB" height="30.2969" rx="2.5" ry="2.5" style="stroke:#181818;stroke-width:0.5;" width="82" x="453.5" y="882.6172"/><text fill="#000000" font-family="sans-serif" font-size="14" lengthAdjust="spacing" textLength="68" x="460.5" y="902.6123">CSI Plugin</text><rect fill="#F0FFFF" height="30.2969" rx="2.5" ry="2.5" style="stroke:#181818;stroke-width:0.5;" width="83" x="545.5" y="50"/><text fill="#000000" font-family="sans-serif" font-size="14" lengthAdjust="spacing" textLength="69" x="552.5" y="69.9951">API Server</text><rect fill="#F0FFFF" height="30.2969" rx="2.5" ry="2.5" style="stroke:#181818;stroke-width:0.5;" width="83" x="545.5" y="882.6172"/><text fill="#000000" font-family="sans-serif" font-size="14" lengthAdjust="spacing" textLength="69" x="552.5" y="902.6123">API Server</text><rect fill="#F0FFFF" height="30.2969" rx="2.5" ry="2.5" style="stroke:#181818;stroke-width:0.5;" width="56" x="726" y="50"/><text fill="#000000" font-family="sans-serif" font-size="14" lengthAdjust="spacing" textLength="42" x="733" y="69.9951">&#35843;&#24230;&#22120;</text><rect fill="#F0FFFF" height="30.2969" rx="2.5" ry="2.5" style="stroke:#181818;stroke-width:0.5;" width="56" x="726" y="882.6172"/><text fill="#000000" font-family="sans-serif" font-size="14" lengthAdjust="spacing" textLength="42" x="733" y="902.6123">&#35843;&#24230;&#22120;</text><rect fill="#E2E2F0" height="30.2969" rx="2.5" ry="2.5" style="stroke:#181818;stroke-width:0.5;" width="78" x="792" y="50"/><text fill="#000000" font-family="sans-serif" font-size="14" lengthAdjust="spacing" textLength="64" x="799" y="69.9951">PV &#25511;&#21046;&#22120;</text><rect fill="#E2E2F0" height="30.2969" rx="2.5" ry="2.5" style="stroke:#181818;stroke-width:0.5;" width="78" x="792" y="882.6172"/><text fill="#000000" font-family="sans-serif" font-size="14" lengthAdjust="spacing" textLength="64" x="799" y="902.6123">PV &#25511;&#21046;&#22120;</text><rect fill="#E2E2F0" height="30.2969" rx="2.5" ry="2.5" style="stroke:#181818;stroke-width:0.5;" width="80" x="880" y="50"/><text fill="#000000" font-family="sans-serif" font-size="14" lengthAdjust="spacing" textLength="66" x="887" y="69.9951">AD &#25511;&#21046;&#22120;</text><rect fill="#E2E2F0" height="30.2969" rx="2.5" ry="2.5" style="stroke:#181818;stroke-width:0.5;" width="80" x="880" y="882.6172"/><text fill="#000000" font-family="sans-serif" font-size="14" lengthAdjust="spacing" textLength="66" x="887" y="902.6123">AD &#25511;&#21046;&#22120;</text><rect fill="#F0FFFF" height="30.2969" rx="2.5" ry="2.5" style="stroke:#181818;stroke-width:0.5;" width="67" x="970" y="50"/><text fill="#000000" font-family="sans-serif" font-size="14" lengthAdjust="spacing" textLength="53" x="977" y="69.9951">Kubelet</text><rect fill="#F0FFFF" height="30.2969" rx="2.5" ry="2.5" style="stroke:#181818;stroke-width:0.5;" width="67" x="970" y="882.6172"/><text fill="#000000" font-family="sans-serif" font-size="14" lengthAdjust="spacing" textLength="53" x="977" y="902.6123">Kubelet</text><rect fill="#FFFFFF" height="727.0547" style="stroke:#181818;stroke-width:1.0;" width="10" x="17" y="147.5625"/><rect fill="#FFFFFF" height="505.125" style="stroke:#181818;stroke-width:1.0;" width="10" x="118.5" y="369.4922"/><rect fill="#FFFFFF" height="475.9922" style="stroke:#181818;stroke-width:1.0;" width="10" x="123.5" y="398.625"/><rect fill="#FFFFFF" height="411.7266" style="stroke:#181818;stroke-width:1.0;" width="10" x="128.5" y="462.8906"/><rect fill="#FFFFFF" height="382.5938" style="stroke:#181818;stroke-width:1.0;" width="10" x="133.5" y="492.0234"/><rect fill="#FFFFFF" height="230.9297" style="stroke:#181818;stroke-width:1.0;" width="10" x="268.5" y="643.6875"/><rect fill="#FFFFFF" height="201.7969" style="stroke:#181818;stroke-width:1.0;" width="10" x="273.5" y="672.8203"/><rect fill="#FFFFFF" height="697.9219" style="stroke:#181818;stroke-width:1.0;" width="10" x="749" y="176.6953"/><rect fill="#FFFFFF" height="668.7891" style="stroke:#181818;stroke-width:1.0;" width="10" x="754" y="205.8281"/><rect fill="#FFFFFF" height="353.4609" style="stroke:#181818;stroke-width:1.0;" width="10" x="759" y="521.1563"/><rect fill="#FFFFFF" height="569.3906" style="stroke:#181818;stroke-width:1.0;" width="10" x="826" y="305.2266"/><rect fill="#FFFFFF" height="289.1953" style="stroke:#181818;stroke-width:1.0;" width="10" x="915" y="585.4219"/><rect fill="#FFFFFF" height="260.0625" style="stroke:#181818;stroke-width:1.0;" width="10" x="920" y="614.5547"/><rect fill="#FFFFFF" height="102.3984" style="stroke:#181818;stroke-width:1.0;" width="10" x="998.5" y="772.2188"/><rect fill="#FFFFFF" height="38.1328" style="stroke:#181818;stroke-width:1.0;" width="10" x="1003.5" y="836.4844"/><path d="M592,96.2969 L592,121.2969 L665,121.2969 L665,106.2969 L655,96.2969 L592,96.2969 " fill="#FEFFDD" style="stroke:#181818;stroke-width:0.5;"/><path d="M655,96.2969 L655,106.2969 L665,106.2969 L655,96.2969 " fill="#FEFFDD" style="stroke:#181818;stroke-width:0.5;"/><text fill="#000000" font-family="sans-serif" font-size="13" lengthAdjust="spacing" textLength="52" x="598" y="113.3638">&#35843;&#24230;&#27969;&#31243;</text><polygon fill="#181818" points="575,143.5625,585,147.5625,575,151.5625,579,147.5625" style="stroke:#181818;stroke-width:1.0;"/><line style="stroke:#181818;stroke-width:1.0;" x1="27" x2="581" y1="147.5625" y2="147.5625"/><text fill="#000000" font-family="sans-serif" font-size="13" font-weight="bold" lengthAdjust="spacing" textLength="9" x="34" y="142.4966">1</text><text fill="#000000" font-family="sans-serif" font-size="13" lengthAdjust="spacing" textLength="101" x="47" y="142.4966">&#21019;&#24314; Pod &#21644; PVC</text><polygon fill="#181818" points="598,172.6953,588,176.6953,598,180.6953,594,176.6953" style="stroke:#181818;stroke-width:1.0;"/><line style="stroke:#181818;stroke-width:1.0;" x1="592" x2="748" y1="176.6953" y2="176.6953"/><text fill="#000000" font-family="sans-serif" font-size="13" font-weight="bold" lengthAdjust="spacing" textLength="9" x="604" y="171.6294">2</text><text fill="#000000" font-family="sans-serif" font-size="13" lengthAdjust="spacing" textLength="130" x="617" y="171.6294">watch Pod&#65292;&#21457;&#36215;&#35843;&#24230;</text><polygon fill="#181818" points="598,201.8281,588,205.8281,598,209.8281,594,205.8281" style="stroke:#181818;stroke-width:1.0;"/><line style="stroke:#181818;stroke-width:1.0;" x1="592" x2="753" y1="205.8281" y2="205.8281"/><text fill="#000000" font-family="sans-serif" font-size="13" font-weight="bold" lengthAdjust="spacing" textLength="9" x="604" y="200.7622">3</text><text fill="#000000" font-family="sans-serif" font-size="13" lengthAdjust="spacing" textLength="94" x="617" y="200.7622">&#36873;&#25321; Node &#33410;&#28857;</text><path d="M769,218.8281 L769,243.8281 L1177,243.8281 L1177,228.8281 L1167,218.8281 L769,218.8281 " fill="#FEFFDD" style="stroke:#181818;stroke-width:0.5;"/><path d="M1167,218.8281 L1167,228.8281 L1177,228.8281 L1167,218.8281 " fill="#FEFFDD" style="stroke:#181818;stroke-width:0.5;"/><text fill="#000000" font-family="sans-serif" font-size="13" lengthAdjust="spacing" textLength="387" x="775" y="235.895">&#20026; PVC &#28155;&#21152; annotation: volume.kubernetes.io/selected-node</text><path d="M592,253.9609 L592,278.9609 L700,278.9609 L700,263.9609 L690,253.9609 L592,253.9609 " fill="#FEFFDD" style="stroke:#181818;stroke-width:0.5;"/><path d="M690,253.9609 L690,263.9609 L700,263.9609 L690,253.9609 " fill="#FEFFDD" style="stroke:#181818;stroke-width:0.5;"/><text fill="#000000" font-family="sans-serif" font-size="13" lengthAdjust="spacing" textLength="87" x="598" y="271.0278">Provision &#27969;&#31243;</text><polygon fill="#181818" points="598,301.2266,588,305.2266,598,309.2266,594,305.2266" style="stroke:#181818;stroke-width:1.0;"/><line style="stroke:#181818;stroke-width:1.0;" x1="592" x2="825" y1="305.2266" y2="305.2266"/><text fill="#000000" font-family="sans-serif" font-size="13" font-weight="bold" lengthAdjust="spacing" textLength="9" x="604" y="300.1606">4</text><text fill="#000000" font-family="sans-serif" font-size="13" lengthAdjust="spacing" textLength="194" x="617" y="300.1606">&#30417;&#35270; PVC&#65292;&#21457;&#29616;&#38656;&#35201;&#21160;&#24577;&#21019;&#24314; PV</text><path d="M841,318.2266 L841,343.2266 L1052,343.2266 L1052,328.2266 L1042,318.2266 L841,318.2266 " fill="#FEFFDD" style="stroke:#181818;stroke-width:0.5;"/><path d="M1042,318.2266 L1042,328.2266 L1052,328.2266 L1042,318.2266 " fill="#FEFFDD" style="stroke:#181818;stroke-width:0.5;"/><text fill="#000000" font-family="sans-serif" font-size="13" lengthAdjust="spacing" textLength="190" x="847" y="335.2935">&#20551;&#35774;&#38598;&#32676;&#20013;&#27809;&#26377; Available &#30340; PV</text><polygon fill="#181818" points="575,365.4922,585,369.4922,575,373.4922,579,369.4922" style="stroke:#181818;stroke-width:1.0;"/><line style="stroke:#181818;stroke-width:1.0;" x1="128.5" x2="581" y1="369.4922" y2="369.4922"/><text fill="#000000" font-family="sans-serif" font-size="13" font-weight="bold" lengthAdjust="spacing" textLength="9" x="135.5" y="364.4263">5</text><text fill="#000000" font-family="sans-serif" font-size="13" lengthAdjust="spacing" textLength="56" x="148.5" y="364.4263">&#30417;&#35270; PVC</text><polygon fill="#181818" points="482.5,394.625,492.5,398.625,482.5,402.625,486.5,398.625" style="stroke:#181818;stroke-width:1.0;"/><line style="stroke:#181818;stroke-width:1.0;" x1="133.5" x2="488.5" y1="398.625" y2="398.625"/><text fill="#000000" font-family="sans-serif" font-size="13" font-weight="bold" lengthAdjust="spacing" textLength="9" x="140.5" y="393.5591">6</text><text fill="#000000" font-family="sans-serif" font-size="13" lengthAdjust="spacing" textLength="198" x="153.5" y="393.5591">&#35843;&#29992; CSI &#25554;&#20214; Provision &#30456;&#20851;&#20989;&#25968;</text><path d="M499,411.625 L499,436.625 L584,436.625 L584,421.625 L574,411.625 L499,411.625 " fill="#FEFFDD" style="stroke:#181818;stroke-width:0.5;"/><path d="M574,411.625 L574,421.625 L584,421.625 L574,411.625 " fill="#FEFFDD" style="stroke:#181818;stroke-width:0.5;"/><text fill="#000000" font-family="sans-serif" font-size="13" lengthAdjust="spacing" textLength="64" x="505" y="428.6919">CSI &#21019;&#24314;&#21367;</text><polygon fill="#181818" points="575,458.8906,585,462.8906,575,466.8906,579,462.8906" style="stroke:#181818;stroke-width:1.0;"/><line style="stroke:#181818;stroke-width:1.0;" x1="138.5" x2="581" y1="462.8906" y2="462.8906"/><text fill="#000000" font-family="sans-serif" font-size="13" font-weight="bold" lengthAdjust="spacing" textLength="9" x="145.5" y="457.8247">7</text><text fill="#000000" font-family="sans-serif" font-size="13" lengthAdjust="spacing" textLength="47" x="158.5" y="457.8247">&#21019;&#24314; PV</text><polygon fill="#181818" points="575,488.0234,585,492.0234,575,496.0234,579,492.0234" style="stroke:#181818;stroke-width:1.0;"/><line style="stroke:#181818;stroke-width:1.0;" x1="143.5" x2="581" y1="492.0234" y2="492.0234"/><text fill="#000000" font-family="sans-serif" font-size="13" font-weight="bold" lengthAdjust="spacing" textLength="9" x="150.5" y="486.9575">8</text><text fill="#000000" font-family="sans-serif" font-size="13" lengthAdjust="spacing" textLength="94" x="163.5" y="486.9575">&#32465;&#23450; PV &#21644; PVC</text><polygon fill="#181818" points="598,517.1563,588,521.1563,598,525.1563,594,521.1563" style="stroke:#181818;stroke-width:1.0;"/><line style="stroke:#181818;stroke-width:1.0;" x1="592" x2="758" y1="521.1563" y2="521.1563"/><text fill="#000000" font-family="sans-serif" font-size="13" font-weight="bold" lengthAdjust="spacing" textLength="9" x="604" y="516.0903">9</text><text fill="#000000" font-family="sans-serif" font-size="13" lengthAdjust="spacing" textLength="109" x="617" y="516.0903">&#32465;&#23450; Pod &#21644; Node</text><path d="M592,534.1563 L592,559.1563 L685,559.1563 L685,544.1563 L675,534.1563 L592,534.1563 " fill="#FEFFDD" style="stroke:#181818;stroke-width:0.5;"/><path d="M675,534.1563 L675,544.1563 L685,544.1563 L675,534.1563 " fill="#FEFFDD" style="stroke:#181818;stroke-width:0.5;"/><text fill="#000000" font-family="sans-serif" font-size="13" lengthAdjust="spacing" textLength="72" x="598" y="551.2231">Attach &#27969;&#31243;</text><polygon fill="#181818" points="598,581.4219,588,585.4219,598,589.4219,594,585.4219" style="stroke:#181818;stroke-width:1.0;"/><line style="stroke:#181818;stroke-width:1.0;" x1="592" x2="914" y1="585.4219" y2="585.4219"/><text fill="#000000" font-family="sans-serif" font-size="13" font-weight="bold" lengthAdjust="spacing" textLength="18" x="604" y="580.356">10</text><text fill="#000000" font-family="sans-serif" font-size="13" lengthAdjust="spacing" textLength="227" x="626" y="580.356">&#30417;&#35270; PV&#65292;&#21457;&#29616;&#38656;&#35201;&#22806;&#37096; Attacher &#22788;&#29702;</text><polygon fill="#181818" points="598,610.5547,588,614.5547,598,618.5547,594,614.5547" style="stroke:#181818;stroke-width:1.0;"/><line style="stroke:#181818;stroke-width:1.0;" x1="592" x2="919" y1="614.5547" y2="614.5547"/><text fill="#000000" font-family="sans-serif" font-size="13" font-weight="bold" lengthAdjust="spacing" textLength="18" x="604" y="609.4888">11</text><text fill="#000000" font-family="sans-serif" font-size="13" lengthAdjust="spacing" textLength="155" x="626" y="609.4888">&#21019;&#24314; VolumeAttachment</text><polygon fill="#181818" points="575,639.6875,585,643.6875,575,647.6875,579,643.6875" style="stroke:#181818;stroke-width:1.0;"/><line style="stroke:#181818;stroke-width:1.0;" x1="278.5" x2="581" y1="643.6875" y2="643.6875"/><text fill="#000000" font-family="sans-serif" font-size="13" font-weight="bold" lengthAdjust="spacing" textLength="18" x="285.5" y="638.6216">12</text><text fill="#000000" font-family="sans-serif" font-size="13" lengthAdjust="spacing" textLength="155" x="307.5" y="638.6216">&#30417;&#35270; VolumeAttachment</text><polygon fill="#181818" points="482.5,668.8203,492.5,672.8203,482.5,676.8203,486.5,672.8203" style="stroke:#181818;stroke-width:1.0;"/><line style="stroke:#181818;stroke-width:1.0;" x1="283.5" x2="488.5" y1="672.8203" y2="672.8203"/><text fill="#000000" font-family="sans-serif" font-size="13" font-weight="bold" lengthAdjust="spacing" textLength="18" x="290.5" y="667.7544">13</text><text fill="#000000" font-family="sans-serif" font-size="13" lengthAdjust="spacing" textLength="170" x="312.5" y="667.7544">&#35843;&#29992; CSI &#30340; Attach &#30456;&#20851;&#20989;&#25968;</text><path d="M499,685.8203 L499,710.8203 L665,710.8203 L665,695.8203 L655,685.8203 L499,685.8203 " fill="#FEFFDD" style="stroke:#181818;stroke-width:0.5;"/><path d="M655,685.8203 L655,695.8203 L665,695.8203 L655,685.8203 " fill="#FEFFDD" style="stroke:#181818;stroke-width:0.5;"/><text fill="#000000" font-family="sans-serif" font-size="13" lengthAdjust="spacing" textLength="145" x="505" y="702.8872">CSI &#23558;&#21367;&#25346;&#36733;&#21040; Node &#19978;</text><path d="M592,720.9531 L592,745.9531 L683,745.9531 L683,730.9531 L673,720.9531 L592,720.9531 " fill="#FEFFDD" style="stroke:#181818;stroke-width:0.5;"/><path d="M673,720.9531 L673,730.9531 L683,730.9531 L673,720.9531 " fill="#FEFFDD" style="stroke:#181818;stroke-width:0.5;"/><text fill="#000000" font-family="sans-serif" font-size="13" lengthAdjust="spacing" textLength="70" x="598" y="738.02">Mount &#27969;&#31243;</text><polygon fill="#181818" points="505.5,768.2188,495.5,772.2188,505.5,776.2188,501.5,772.2188" style="stroke:#181818;stroke-width:1.0;"/><line style="stroke:#181818;stroke-width:1.0;" x1="499.5" x2="997.5" y1="772.2188" y2="772.2188"/><text fill="#000000" font-family="sans-serif" font-size="13" font-weight="bold" lengthAdjust="spacing" textLength="18" x="511.5" y="767.1528">14</text><text fill="#000000" font-family="sans-serif" font-size="13" lengthAdjust="spacing" textLength="168" x="533.5" y="767.1528">&#35843;&#29992; CSI &#30340; Mount &#30456;&#20851;&#20989;&#25968;</text><path d="M499,785.2188 L499,810.2188 L759,810.2188 L759,795.2188 L749,785.2188 L499,785.2188 " fill="#FEFFDD" style="stroke:#181818;stroke-width:0.5;"/><path d="M749,785.2188 L749,795.2188 L759,795.2188 L749,785.2188 " fill="#FEFFDD" style="stroke:#181818;stroke-width:0.5;"/><text fill="#000000" font-family="sans-serif" font-size="13" lengthAdjust="spacing" textLength="239" x="505" y="802.2856">CSI &#23558;&#21367;&#25346;&#36733;&#21040;&#20840;&#23616;&#30446;&#24405;&#24182;&#26144;&#23556;&#21040; Pod &#20013;</text><polygon fill="#181818" points="598,832.4844,588,836.4844,598,840.4844,594,836.4844" style="stroke:#181818;stroke-width:1.0;"/><line style="stroke:#181818;stroke-width:1.0;" x1="592" x2="1002.5" y1="836.4844" y2="836.4844"/><text fill="#000000" font-family="sans-serif" font-size="13" font-weight="bold" lengthAdjust="spacing" textLength="18" x="604" y="831.4185">15</text><text fill="#000000" font-family="sans-serif" font-size="13" lengthAdjust="spacing" textLength="137" x="626" y="831.4185">Pod &#25346;&#36733; Volume &#23436;&#25104;</text><polygon fill="#181818" points="38,861.6172,28,865.6172,38,869.6172,34,865.6172" style="stroke:#181818;stroke-width:1.0;"/><line style="stroke:#181818;stroke-width:1.0;" x1="32" x2="586" y1="865.6172" y2="865.6172"/><text fill="#000000" font-family="sans-serif" font-size="13" font-weight="bold" lengthAdjust="spacing" textLength="18" x="44" y="860.5513">16</text><text fill="#000000" font-family="sans-serif" font-size="13" lengthAdjust="spacing" textLength="150" x="66" y="860.5513">Pod &#21521; Volume &#35835;&#20889;&#25968;&#25454;</text></g></svg>